<svg width="38" height="41" viewBox="0 0 38 41" fill="none" xmlns="http://www.w3.org/2000/svg">
<path fill-rule="evenodd" clip-rule="evenodd" d="M38 20.5C38 30.4066 29.4928 38.4375 19 38.4375C17.1182 38.4402 15.2441 38.1766 13.4259 37.6534C12.0389 38.4119 8.854 39.8674 3.496 40.8155C3.021 40.8975 2.66 40.3645 2.84763 39.8879C3.68837 37.7456 4.44837 34.891 4.67637 32.2875C1.767 29.1356 0 25.01 0 20.5C0 10.5934 8.50725 2.5625 19 2.5625C29.4928 2.5625 38 10.5934 38 20.5ZM17.0857 17.3379C17.2924 17.6556 17.4729 18.0041 17.6249 18.3654C18.6414 20.7947 18.5583 24.4565 15.3876 27.8621C15.1941 28.0656 14.9358 28.1816 14.6656 28.1864C14.3954 28.1911 14.1337 28.0843 13.9341 27.8877C13.8368 27.7926 13.7586 27.677 13.7042 27.548C13.6499 27.4191 13.6206 27.2795 13.6181 27.1378C13.6157 26.9962 13.6402 26.8555 13.69 26.7245C13.7399 26.5934 13.814 26.4748 13.908 26.3758C14.9031 25.3098 15.504 24.2464 15.8294 23.2496C15.1905 23.6724 14.4329 23.9158 13.6206 23.9158C11.3406 23.9158 9.5 22.0042 9.5 19.6467C9.5 17.2892 11.343 15.375 13.6183 15.375C14.2619 15.375 14.8722 15.5287 15.4137 15.8004L15.4328 15.8106C15.8341 15.99 16.2094 16.277 16.5466 16.6409C16.7485 16.8536 16.929 17.0867 17.0857 17.3379ZM26.125 23.2496C25.4861 23.6724 24.7285 23.9158 23.9162 23.9158C21.641 23.9158 19.7956 22.0042 19.7956 19.6467C19.7956 17.2892 21.641 15.375 23.9139 15.375C24.5575 15.375 25.1679 15.5287 25.7094 15.8004L25.7284 15.8106C26.1321 15.99 26.505 16.277 26.8423 16.6409C27.0441 16.8536 27.2246 17.0867 27.3814 17.3379C27.588 17.6556 27.7709 18.0041 27.9229 18.3654C28.9394 20.7947 28.8539 24.4565 25.6856 27.8621C25.492 28.0663 25.2332 28.1828 24.9624 28.1876C24.6916 28.1923 24.4295 28.085 24.2297 27.8877C24.1324 27.7926 24.0542 27.677 23.9999 27.548C23.9455 27.4191 23.9162 27.2795 23.9138 27.1378C23.9113 26.9962 23.9358 26.8555 23.9856 26.7245C24.0355 26.5934 24.1097 26.4748 24.2036 26.3758C25.2011 25.3098 25.7996 24.2464 26.1274 23.2496H26.125Z" fill="black"/>
</svg>
