<svg width="48" height="51" viewBox="0 0 48 51" fill="none" xmlns="http://www.w3.org/2000/svg">
<path fill-rule="evenodd" clip-rule="evenodd" d="M3 44.625C3 44.625 0 44.625 0 41.4375C0 38.25 3 28.6875 18 28.6875C33 28.6875 36 38.25 36 41.4375C36 44.625 33 44.625 33 44.625H3ZM18 25.5C20.3869 25.5 22.6761 24.4925 24.364 22.6992C26.0518 20.9059 27 18.4736 27 15.9375C27 13.4014 26.0518 10.9691 24.364 9.17579C22.6761 7.38248 20.3869 6.375 18 6.375C15.6131 6.375 13.3239 7.38248 11.636 9.17579C9.94821 10.9691 9 13.4014 9 15.9375C9 18.4736 9.94821 20.9059 11.636 22.6992C13.3239 24.4925 15.6131 25.5 18 25.5ZM40.5 15.9375C40.8978 15.9375 41.2794 16.1054 41.5607 16.4043C41.842 16.7032 42 17.1086 42 17.5312V23.9062C42 24.3289 41.842 24.7343 41.5607 25.0332C41.2794 25.3321 40.8978 25.5 40.5 25.5H34.5C34.1022 25.5 33.7206 25.3321 33.4393 25.0332C33.158 24.7343 33 24.3289 33 23.9062C33 23.4836 33.158 23.0782 33.4393 22.7793C33.7206 22.4804 34.1022 22.3125 34.5 22.3125H39V17.5312C39 17.1086 39.158 16.7032 39.4393 16.4043C39.7206 16.1054 40.1022 15.9375 40.5 15.9375Z" fill="black"/>
<path fill-rule="evenodd" clip-rule="evenodd" d="M39 23.9062C39 23.4836 39.158 23.0782 39.4393 22.7793C39.7206 22.4804 40.1022 22.3125 40.5 22.3125H46.5C46.8978 22.3125 47.2794 22.4804 47.5607 22.7793C47.842 23.0782 48 23.4836 48 23.9062C48 24.3289 47.842 24.7343 47.5607 25.0332C47.2794 25.3321 46.8978 25.5 46.5 25.5H42V30.2812C42 30.7039 41.842 31.1093 41.5607 31.4082C41.2794 31.7071 40.8978 31.875 40.5 31.875C40.1022 31.875 39.7206 31.7071 39.4393 31.4082C39.158 31.1093 39 30.7039 39 30.2812V23.9062Z" fill="black"/>
</svg>
