<svg width="66" height="46" viewBox="0 0 66 46" fill="none" xmlns="http://www.w3.org/2000/svg">
<path d="M11.0014 8.625H38.4986C42.2936 8.625 45.375 10.7697 45.375 13.4176V32.5824C45.375 35.2274 42.2978 37.375 38.4986 37.375H11.0014C7.20638 37.375 4.125 35.2303 4.125 32.5824V13.4176C4.125 10.7726 7.20225 8.625 11.0014 8.625Z" fill="black"/>
<path d="M30.5414 25.0038L56.7888 35.6183C59.0163 36.5182 61.8749 35.4286 61.8749 33.6145V12.3855C61.8749 10.5742 59.0163 9.48171 56.7888 10.3845L30.5414 20.999C30.0347 21.2006 29.6135 21.492 29.3206 21.8437C29.0276 22.1953 28.8733 22.5947 28.8733 23.0014C28.8733 23.4081 29.0276 23.8075 29.3206 24.1591C29.6135 24.5108 30.0347 24.8022 30.5414 25.0038Z" fill="black"/>
</svg>
