<svg width="98" height="23" viewBox="0 0 98 23" fill="none" xmlns="http://www.w3.org/2000/svg">
<rect width="98" height="23" rx="4" fill="#343A40"/>
<path d="M13.5753 7.12926C13.2273 4.9517 11.522 3.67898 9.36932 3.67898C6.73438 3.67898 4.79048 5.6527 4.79048 8.90909C4.79048 12.1655 6.72443 14.1392 9.36932 14.1392C11.6065 14.1392 13.2422 12.7372 13.5753 10.7237L12.0241 10.7188C11.7607 12.0213 10.6669 12.7372 9.37926 12.7372C7.63423 12.7372 6.31676 11.3999 6.31676 8.90909C6.31676 6.43821 7.62926 5.08097 9.38423 5.08097C10.6818 5.08097 11.7706 5.81179 12.0241 7.12926H13.5753ZM18.5108 14.1541C20.6635 14.1541 22.0705 12.5781 22.0705 10.2166C22.0705 7.8402 20.6635 6.2642 18.5108 6.2642C16.3581 6.2642 14.9512 7.8402 14.9512 10.2166C14.9512 12.5781 16.3581 14.1541 18.5108 14.1541ZM18.5158 12.9062C17.1088 12.9062 16.4526 11.6783 16.4526 10.2116C16.4526 8.75 17.1088 7.5071 18.5158 7.5071C19.9128 7.5071 20.5691 8.75 20.5691 10.2116C20.5691 11.6783 19.9128 12.9062 18.5158 12.9062ZM23.7298 14H25.2163V9.2919C25.2163 8.26278 25.9371 7.54688 26.7823 7.54688C27.6076 7.54688 28.1793 8.09375 28.1793 8.92401V14H29.6609V9.13281C29.6609 8.21307 30.2227 7.54688 31.1921 7.54688C31.9776 7.54688 32.6239 7.98438 32.6239 9.01847V14H34.1104V8.87926C34.1104 7.13423 33.136 6.2642 31.7539 6.2642C30.6552 6.2642 29.8299 6.79119 29.462 7.60653H29.3825C29.0494 6.77131 28.3484 6.2642 27.3292 6.2642C26.32 6.2642 25.5692 6.76633 25.2511 7.60653H25.1566V6.36364H23.7298V14ZM36.1028 14H37.5893V6.36364H36.1028V14ZM36.8535 5.18537C37.3656 5.18537 37.7931 4.78764 37.7931 4.30043C37.7931 3.81321 37.3656 3.41051 36.8535 3.41051C36.3365 3.41051 35.9139 3.81321 35.9139 4.30043C35.9139 4.78764 36.3365 5.18537 36.8535 5.18537ZM41.0756 9.46591C41.0756 8.24787 41.8214 7.55185 42.8555 7.55185C43.8647 7.55185 44.4762 8.21307 44.4762 9.32173V14H45.9627V9.14276C45.9627 7.25355 44.9237 6.2642 43.3626 6.2642C42.2141 6.2642 41.4634 6.79616 41.1104 7.60653H41.016V6.36364H39.5891V14H41.0756V9.46591ZM51.158 17.0227C53.1019 17.0227 54.6033 16.1328 54.6033 14.169V6.36364H53.1467V7.60156H53.0373C52.7738 7.12926 52.2468 6.2642 50.8249 6.2642C48.9805 6.2642 47.6232 7.72088 47.6232 10.152C47.6232 12.5881 49.0103 13.8857 50.815 13.8857C52.217 13.8857 52.7589 13.0952 53.0273 12.608H53.1218V14.1094C53.1218 15.3075 52.3015 15.8246 51.1729 15.8246C49.935 15.8246 49.4528 15.2031 49.1893 14.7656L47.9116 15.2926C48.3143 16.2273 49.3335 17.0227 51.158 17.0227ZM51.1431 12.6527C49.8157 12.6527 49.1246 11.6335 49.1246 10.1321C49.1246 8.66548 49.8008 7.52699 51.1431 7.52699C52.4407 7.52699 53.1367 8.58594 53.1367 10.1321C53.1367 11.7081 52.4258 12.6527 51.1431 12.6527ZM65.9746 6.4929H67.4561C67.4114 4.86222 65.9696 3.67898 63.9015 3.67898C61.8581 3.67898 60.2921 4.8473 60.2921 6.60227C60.2921 8.01918 61.3063 8.84943 62.9419 9.2919L64.1451 9.62003C65.2338 9.90838 66.074 10.2663 66.074 11.1712C66.074 12.1655 65.1245 12.8217 63.8169 12.8217C62.6337 12.8217 61.6493 12.2947 61.5598 11.1861H60.0186C60.1181 13.0305 61.5449 14.169 63.8269 14.169C66.2182 14.169 67.5953 12.9112 67.5953 11.1861C67.5953 9.35156 65.9597 8.64062 64.6671 8.32244L63.6728 8.06392C62.8773 7.86009 61.8184 7.48722 61.8233 6.51278C61.8233 5.64773 62.6138 5.00639 63.8667 5.00639C65.035 5.00639 65.8652 5.55327 65.9746 6.4929ZM72.5284 14.1541C74.6811 14.1541 76.0881 12.5781 76.0881 10.2166C76.0881 7.8402 74.6811 6.2642 72.5284 6.2642C70.3757 6.2642 68.9688 7.8402 68.9688 10.2166C68.9688 12.5781 70.3757 14.1541 72.5284 14.1541ZM72.5334 12.9062C71.1264 12.9062 70.4702 11.6783 70.4702 10.2116C70.4702 8.75 71.1264 7.5071 72.5334 7.5071C73.9304 7.5071 74.5866 8.75 74.5866 10.2116C74.5866 11.6783 73.9304 12.9062 72.5334 12.9062ZM80.964 14.1541C83.1167 14.1541 84.5236 12.5781 84.5236 10.2166C84.5236 7.8402 83.1167 6.2642 80.964 6.2642C78.8113 6.2642 77.4043 7.8402 77.4043 10.2166C77.4043 12.5781 78.8113 14.1541 80.964 14.1541ZM80.9689 12.9062C79.562 12.9062 78.9057 11.6783 78.9057 10.2116C78.9057 8.75 79.562 7.5071 80.9689 7.5071C82.3659 7.5071 83.0222 8.75 83.0222 10.2116C83.0222 11.6783 82.3659 12.9062 80.9689 12.9062ZM87.6694 9.46591C87.6694 8.24787 88.4151 7.55185 89.4492 7.55185C90.4585 7.55185 91.07 8.21307 91.07 9.32173V14H92.5565V9.14276C92.5565 7.25355 91.5174 6.2642 89.9563 6.2642C88.8079 6.2642 88.0572 6.79616 87.7042 7.60653H87.6097V6.36364H86.1829V14H87.6694V9.46591Z" fill="white"/>
</svg>
