<svg width="62" height="50" viewBox="0 0 62 50" fill="none" xmlns="http://www.w3.org/2000/svg">
<path d="M40.6875 25C40.6875 27.072 39.6669 29.0591 37.8501 30.5243C36.0333 31.9894 33.5693 32.8125 31 32.8125C28.4307 32.8125 25.9667 31.9894 24.1499 30.5243C22.3331 29.0591 21.3125 27.072 21.3125 25C21.3125 22.928 22.3331 20.9409 24.1499 19.4757C25.9667 18.0106 28.4307 17.1875 31 17.1875C33.5693 17.1875 36.0333 18.0106 37.8501 19.4757C39.6669 20.9409 40.6875 22.928 40.6875 25Z" fill="black"/>
<path fill-rule="evenodd" clip-rule="evenodd" d="M0 25C0 25 11.625 7.8125 31 7.8125C50.375 7.8125 62 25 62 25C62 25 50.375 42.1875 31 42.1875C11.625 42.1875 0 25 0 25ZM31 35.9375C34.597 35.9375 38.0467 34.7852 40.5901 32.734C43.1336 30.6828 44.5625 27.9008 44.5625 25C44.5625 22.0992 43.1336 19.3172 40.5901 17.266C38.0467 15.2148 34.597 14.0625 31 14.0625C27.403 14.0625 23.9533 15.2148 21.4099 17.266C18.8664 19.3172 17.4375 22.0992 17.4375 25C17.4375 27.9008 18.8664 30.6828 21.4099 32.734C23.9533 34.7852 27.403 35.9375 31 35.9375Z" fill="black"/>
</svg>
